<svg viewBox="0 0 100 100" fill="none" xmlns="http://www.w3.org/2000/svg">
  <defs>
    <!-- 底层便签的渐变：炫彩暖色 -->
    <linearGradient id="bg-bottom" x1="0%" y1="0%" x2="100%" y2="100%">
      <stop offset="0%" stop-color="#FF2E93" />
      <stop offset="100%" stop-color="#FF8A00" />
    </linearGradient>
    <!-- 中层便签的渐变：亮丽青蓝 -->
    <linearGradient id="bg-middle" x1="0%" y1="0%" x2="100%" y2="100%">
      <stop offset="0%" stop-color="#00F2FE" />
      <stop offset="100%" stop-color="#4FACFE" />
    </linearGradient>
    <!-- 顶层主便签的渐变：优雅霓虹紫粉 -->
    <linearGradient id="bg-top" x1="0%" y1="0%" x2="100%" y2="100%">
      <stop offset="0%" stop-color="#8B5CF6" />
      <stop offset="100%" stop-color="#EC4899" />
    </linearGradient>
    <!-- 折角背面的高光/暗影渐变 -->
    <linearGradient id="fold-grad" x1="0%" y1="100%" x2="100%" y2="0%">
      <stop offset="0%" stop-color="#FFFFFF" stop-opacity="0.9" />
      <stop offset="50%" stop-color="#EC4899" />
      <stop offset="100%" stop-color="#8B5CF6" />
    </linearGradient>
    
    <!-- 统一的便签投影，增加3D立体感 -->
    <filter id="layer-shadow" x="-20%" y="-20%" width="150%" height="150%">
      <feDropShadow dx="0" dy="3" stdDeviation="4" flood-color="#000000" flood-opacity="0.25" />
    </filter>
    
    <!-- 主阴影 -->
    <filter id="glow-shadow" x="-25%" y="-25%" width="150%" height="150%">
      <feDropShadow dx="0" dy="6" stdDeviation="8" flood-color="#8B5CF6" flood-opacity="0.35" />
    </filter>
  </defs>

  <!-- 1. 底层便签：倾斜 -10 度 -->
  <g transform="rotate(-10, 50, 50)" filter="url(#layer-shadow)">
    <rect x="18" y="18" width="64" height="64" rx="10" fill="url(#bg-bottom)" />
  </g>

  <!-- 2. 中层便签：倾斜 6 度 -->
  <g transform="rotate(6, 50, 50)" filter="url(#layer-shadow)">
    <rect x="18" y="18" width="64" height="64" rx="10" fill="url(#bg-middle)" />
  </g>

  <!-- 3. 顶层便签：微倾斜 -2 度 -->
  <g transform="rotate(-2, 50, 50)" filter="url(#glow-shadow)">
    <!-- 顶层便签主体（带右下角切角） -->
    <path d="M18 28 C18 22.4772 22.4772 18 28 18 H72 C77.5228 18 82 22.4772 82 28 V66 L66 82 H28 C22.4772 82 18 77.5228 18 72 Z" fill="url(#bg-top)" />
    
    <!-- 右下角折叠效果 (Folded Corner) -->
    <path d="M66 82 C66 73.1634 73.1634 66 82 66 H66 V82 Z" fill="url(#fold-grad)" />
    <!-- 折叠边缘微阴影 -->
    <path d="M66 82 L82 66" stroke="#000000" stroke-opacity="0.1" stroke-width="1.5" />

    <!-- 便签内部的精美点缀：手写笔触与音符/光芒 -->
    <path d="M28 32 H66" stroke="#FFFFFF" stroke-opacity="0.35" stroke-width="3" stroke-linecap="round" />
    <path d="M28 44 H54" stroke="#FFFFFF" stroke-opacity="0.35" stroke-width="3" stroke-linecap="round" />
    
    <!-- 闪耀星芒 (Lumi) -->
    <path d="M64 45 C64 49 61 51 57 51 C61 51 64 53 64 57 C64 53 67 51 71 51 C67 51 64 49 64 45 Z" fill="#FFFFFF" />
    <!-- 辅星 -->
    <path d="M32 58 C32 60 30.5 61 28.5 61 C30.5 61 32 62 32 64 C32 62 33.5 61 35.5 61 C33.5 61 32 60 32 58 Z" fill="#FFFFFF" opacity="0.8" />
  </g>
</svg>
